<?xml version="1.0" encoding="UTF-8"?>
<svg version="1.1" xmlns="http://www.w3.org/2000/svg" width="300" height="300">
<path d="M0 0 C99 0 198 0 300 0 C300 99 300 198 300 300 C201 300 102 300 0 300 C0 201 0 102 0 0 Z " fill="#B3E31C" transform="translate(0,0)"/>
<path d="M0 0 C99 0 198 0 300 0 C300 99 300 198 300 300 C201 300 102 300 0 300 C0 201 0 102 0 0 Z M51 15 C51 15.66 51 16.32 51 17 C49.35 17 47.7 17 46 17 C46 17.99 46 18.98 46 20 C43.69 20.66 41.38 21.32 39 22 C39 22.66 39 23.32 39 24 C38.34 24 37.68 24 37 24 C37 25.32 37 26.64 37 28 C35.02 28.99 35.02 28.99 33 30 C33 30.99 33 31.98 33 33 C32.34 33 31.68 33 31 33 C29.70756464 37.1196377 28.73747375 40.66831683 29 45 C28.01 45 27.02 45 26 45 C23.07410753 63.86155681 23.81051324 82.97407129 24 102 C23.01 102 22.02 102 21 102 C20.66078976 109.18514223 20.34156085 116.37098112 20.03564453 123.55761719 C19.92947419 125.9979216 19.81887601 128.43803783 19.70361328 130.87792969 C19.53789986 134.40258204 19.38858126 137.9276235 19.2421875 141.453125 C19.18811737 142.5286261 19.13404724 143.6041272 19.07833862 144.71221924 C18.79500637 152.04478129 19.53231887 158.81353426 21 166 C21.99 166 22.98 166 24 166 C23.97679687 166.59425781 23.95359375 167.18851563 23.9296875 167.80078125 C23.78551273 174.4225223 24.62253274 180.53082341 26 187 C26.66 187 27.32 187 28 187 C28 189.31 28 191.62 28 194 C28.66 194 29.32 194 30 194 C30 195.98 30 197.96 30 200 C30.99 200.33 31.98 200.66 33 201 C33 198.69 33 196.38 33 194 C33.66 194 34.32 194 35 194 C35 191.69 35 189.38 35 187 C35.66 187 36.32 187 37 187 C38.72148402 177.05411528 38.72148402 177.05411528 39 167 C39.66 167 40.32 167 41 167 C41.33 163.37 41.66 159.74 42 156 C42.66 156 43.32 156 44 156 C44 151.38 44 146.76 44 142 C43.34 142 42.68 142 42 142 C42.01160156 141.1440625 42.02320312 140.288125 42.03515625 139.40625 C42.14350005 123.92856489 41.53219239 108.46613374 41 93 C40.34 93 39.68 93 39 93 C39 90.69 39 88.38 39 86 C39.66 86 40.32 86 41 86 C41 85.34 41 84.68 41 84 C40.34 84 39.68 84 39 84 C39 81.36 39 78.72 39 76 C39.66 76 40.32 76 41 76 C41 75.01 41 74.02 41 73 C40.34 73 39.68 73 39 73 C39 64.42 39 55.84 39 47 C39.66 47 40.32 47 41 47 C41.12375 46.195625 41.2475 45.39125 41.375 44.5625 C41.58125 43.716875 41.7875 42.87125 42 42 C42.66 41.67 43.32 41.34 44 41 C44 39.35 44 37.7 44 36 C44.66 36 45.32 36 46 36 C46.33 34.02 46.66 32.04 47 30 C47.66 30 48.32 30 49 30 C49 33.63 49 37.26 49 41 C48.34 41 47.68 41 47 41 C47 114.59 47 188.18 47 264 C47.66 264 48.32 264 49 264 C49 270.27 49 276.54 49 283 C49.66 283 50.32 283 51 283 C50.979375 283.94875 50.95875 284.8975 50.9375 285.875 C50.77448174 288.90666283 50.77448174 288.90666283 52 291 C118 291 184 291 252 291 C252 290.34 252 289.68 252 289 C252.57443848 289.01571045 253.14887695 289.0314209 253.74072266 289.04760742 C256.36871309 289.11035513 258.99654537 289.14911506 261.625 289.1875 C262.52863281 289.21263672 263.43226563 289.23777344 264.36328125 289.26367188 C269.63742609 289.32141799 273.50913601 289.11744442 278 286 C278.33 285.01 278.66 284.02 279 283 C279.66 283 280.32 283 281 283 C282.16130969 280.67738062 282.12529965 279.35001126 282.12584114 276.7642374 C282.12844889 275.87035614 282.13105664 274.97647487 282.13374341 274.05550629 C282.13151268 273.06729557 282.12928196 272.07908485 282.12698364 271.06092834 C282.12932363 269.49345601 282.12932363 269.49345601 282.13171089 267.89431757 C282.13572045 264.36971652 282.13253139 260.84515806 282.12939453 257.32055664 C282.1307486 254.80299352 282.13252856 252.28543059 282.13470459 249.76786804 C282.13880279 243.62559846 282.13818671 237.48334481 282.13529195 231.34107501 C282.13303688 226.35020476 282.13272585 221.35933794 282.13381577 216.36846733 C282.133969 215.659112 282.13412223 214.94975667 282.13428011 214.21890573 C282.13459982 212.77801399 282.13492404 211.33712225 282.1352527 209.89623051 C282.13810692 196.37239634 282.13482148 182.84856894 282.12945233 169.32473587 C282.12498531 157.71363888 282.1257595 146.10255189 282.13037109 134.49145508 C282.13571953 121.01875549 282.13783122 107.54606184 282.13475883 94.07336134 C282.13444027 92.63735704 282.1341259 91.20135274 282.13381577 89.76534843 C282.13366149 89.05874832 282.13350721 88.3521482 282.13334826 87.62413596 C282.13248385 82.63816116 282.13394439 77.65219012 282.13629532 72.6662159 C282.13938867 65.95797163 282.13719425 59.2497492 282.13140106 52.54150581 C282.1300746 50.07393933 282.13046567 47.60637125 282.13266373 45.13880539 C282.13537968 41.78120023 282.13198853 38.4236565 282.12698364 35.0660553 C282.13032973 33.5870853 282.13032973 33.5870853 282.13374341 32.07823712 C282.12983178 30.73350359 282.12983178 30.73350359 282.12584114 29.36160374 C282.12567879 28.58615981 282.12551644 27.81071588 282.12534916 27.01177365 C282.07345987 24.79268002 282.07345987 24.79268002 281 22 C280.34 22 279.68 22 279 22 C278.79375 21.21625 278.5875 20.4325 278.375 19.625 C277.23473083 16.79205558 277.23473083 16.79205558 274.46160793 15.85376263 C270.29844555 14.8269703 266.50874885 14.70816701 262.23927307 14.71479797 C261.36928883 14.70830001 260.49930459 14.70180204 259.60295719 14.69510716 C256.69434015 14.67579563 253.7858711 14.67055224 250.87719727 14.6652832 C248.78916988 14.65434532 246.7011468 14.64255435 244.61312866 14.62997437 C238.94585343 14.59838902 233.27859662 14.57913217 227.61126065 14.56235147 C221.67944512 14.54299034 215.74768079 14.51326546 209.81590271 14.48490906 C199.85344279 14.43884546 189.89097644 14.40045021 179.9284668 14.36694336 C168.41317974 14.32815343 156.89797576 14.27888121 145.38275677 14.22361308 C134.3036156 14.1705474 123.2244579 14.12338079 112.14527702 14.07942772 C107.431326 14.06071448 102.71738774 14.0402156 98.00345039 14.01833534 C92.45081054 13.99293932 86.89817531 13.9727997 81.34550095 13.956707 C79.3085445 13.9500075 77.27159292 13.94156777 75.23465157 13.93125343 C72.45232914 13.91747212 69.67005946 13.91005493 66.88771057 13.9042511 C65.6812765 13.89609177 65.6812765 13.89609177 64.45047003 13.88776761 C59.86100509 13.88618766 55.52793248 14.2403274 51 15 Z " fill="#FEFEFE" transform="translate(0,0)"/>
<path d="M0 0 C0.87154423 0.001818 1.74308846 0.00363599 2.64104313 0.00550908 C5.54889558 0.01286427 8.45666292 0.02755793 11.36448669 0.0422821 C13.45427826 0.04915538 15.54407126 0.05560415 17.63386536 0.06166077 C23.3010554 0.07955424 28.96819771 0.10411619 34.63535428 0.13042092 C39.36719788 0.15193348 44.0990512 0.17058059 48.83090633 0.18935269 C59.99202753 0.23383407 71.15311277 0.28412384 82.31419373 0.33769226 C93.83001527 0.39283293 105.34584277 0.436812 116.86173016 0.47554332 C126.75066599 0.50927361 136.63955103 0.5505956 146.52843136 0.59786862 C152.43399364 0.62598018 158.33953022 0.6510414 164.24513435 0.6685276 C169.79621954 0.68523867 175.34718072 0.71139476 180.89818954 0.74483871 C182.93554507 0.75551116 184.97292145 0.76281359 187.01030159 0.76650429 C189.79085862 0.77206792 192.57108345 0.7897793 195.3515625 0.81054688 C196.1580826 0.80929426 196.9646027 0.80804165 197.7955628 0.80675107 C202.24928876 0.85477164 205.97911641 1.22937158 210.11228943 3.0957489 C211.48728943 5.7207489 211.48728943 5.7207489 212.11228943 8.0957489 C212.77228943 8.0957489 213.43228943 8.0957489 214.11228943 8.0957489 C215.04504543 10.8940169 215.23752541 12.56692459 215.23813057 15.45735264 C215.24204219 16.80208616 215.24204219 16.80208616 215.24603283 18.17398602 C215.24268675 19.65295602 215.24268675 19.65295602 215.23927307 21.1618042 C215.24083306 22.20834575 215.24239305 23.25488729 215.24400032 24.33314222 C215.24800444 27.8569712 215.24482292 31.38075746 215.24168396 34.90458679 C215.24303825 37.42391994 215.24481834 39.94325288 215.24699402 42.46258545 C215.25108962 48.60505082 215.2504776 54.74750025 215.24758138 60.88996584 C215.24532551 65.88034403 215.24501562 70.87071879 215.24610519 75.86109734 C215.24625843 76.5706059 215.24641166 77.28011446 215.24656954 78.01112328 C215.24688925 79.45233922 215.24721347 80.89355515 215.24754213 82.33477109 C215.25039534 95.85667181 215.24711227 109.37856575 215.24174176 122.90046536 C215.2372729 134.51186861 215.23805064 146.12326185 215.24266052 157.73466492 C215.24800742 171.20882708 215.25012168 184.68298331 215.24704826 198.15714639 C215.2467297 199.59283634 215.24641533 201.02852629 215.24610519 202.46421623 C215.24595092 203.17066207 215.24579664 203.87710791 215.24563769 204.60496121 C215.24477296 209.59191836 215.24623447 214.57887175 215.24858475 219.56582832 C215.25167592 226.27244118 215.24948728 232.97903217 215.24369049 239.68564415 C215.24236309 242.15363153 215.24275668 244.62162048 215.24495316 247.08960724 C215.24766538 250.44531912 215.24428261 253.80096934 215.23927307 257.15667725 C215.24150379 258.14488797 215.24373451 259.13309869 215.24603283 260.15125519 C215.24342509 261.04513646 215.24081734 261.93901773 215.23813057 262.85998631 C215.23796822 263.63526788 215.23780586 264.41054946 215.23763859 265.20932442 C215.11228943 267.0957489 215.11228943 267.0957489 214.11228943 269.0957489 C213.45228943 269.0957489 212.79228943 269.0957489 212.11228943 269.0957489 C211.88541443 269.7144989 211.65853943 270.3332489 211.42478943 270.9707489 C209.61416149 273.90224176 208.44683083 274.14302279 205.11228943 275.0957489 C201.67040186 275.33210486 198.24763691 275.28410158 194.79978943 275.2207489 C193.40276794 275.20721375 193.40276794 275.20721375 191.9775238 275.19340515 C189.68884583 275.16993153 187.40070271 275.13709619 185.11228943 275.0957489 C185.11228943 275.7557489 185.11228943 276.4157489 185.11228943 277.0957489 C119.11228943 277.0957489 53.11228943 277.0957489 -14.88771057 277.0957489 C-16.24210725 274.38695555 -15.95272508 272.08641622 -15.88771057 269.0957489 C-16.54771057 269.0957489 -17.20771057 269.0957489 -17.88771057 269.0957489 C-17.88771057 262.8257489 -17.88771057 256.5557489 -17.88771057 250.0957489 C-18.54771057 250.0957489 -19.20771057 250.0957489 -19.88771057 250.0957489 C-19.88771057 176.5057489 -19.88771057 102.9157489 -19.88771057 27.0957489 C-19.22771057 27.0957489 -18.56771057 27.0957489 -17.88771057 27.0957489 C-17.88771057 23.4657489 -17.88771057 19.8357489 -17.88771057 16.0957489 C-18.54771057 16.0957489 -19.20771057 16.0957489 -19.88771057 16.0957489 C-20.21771057 18.0757489 -20.54771057 20.0557489 -20.88771057 22.0957489 C-21.54771057 22.0957489 -22.20771057 22.0957489 -22.88771057 22.0957489 C-22.88771057 23.7457489 -22.88771057 25.3957489 -22.88771057 27.0957489 C-23.54771057 27.4257489 -24.20771057 27.7557489 -24.88771057 28.0957489 C-25.54326176 30.62308125 -25.54326176 30.62308125 -25.88771057 33.0957489 C-26.54771057 33.0957489 -27.20771057 33.0957489 -27.88771057 33.0957489 C-27.88771057 41.6757489 -27.88771057 50.2557489 -27.88771057 59.0957489 C-27.22771057 59.0957489 -26.56771057 59.0957489 -25.88771057 59.0957489 C-25.88771057 60.0857489 -25.88771057 61.0757489 -25.88771057 62.0957489 C-26.54771057 62.0957489 -27.20771057 62.0957489 -27.88771057 62.0957489 C-27.88771057 64.7357489 -27.88771057 67.3757489 -27.88771057 70.0957489 C-27.22771057 70.0957489 -26.56771057 70.0957489 -25.88771057 70.0957489 C-25.88771057 70.7557489 -25.88771057 71.4157489 -25.88771057 72.0957489 C-26.54771057 72.0957489 -27.20771057 72.0957489 -27.88771057 72.0957489 C-27.88771057 74.4057489 -27.88771057 76.7157489 -27.88771057 79.0957489 C-27.22771057 79.0957489 -26.56771057 79.0957489 -25.88771057 79.0957489 C-24.69382654 113.79141594 -24.69382654 113.79141594 -24.88771057 128.0957489 C-24.22771057 128.0957489 -23.56771057 128.0957489 -22.88771057 128.0957489 C-22.88771057 132.7157489 -22.88771057 137.3357489 -22.88771057 142.0957489 C-23.54771057 142.0957489 -24.20771057 142.0957489 -24.88771057 142.0957489 C-25.21771057 145.7257489 -25.54771057 149.3557489 -25.88771057 153.0957489 C-26.54771057 153.0957489 -27.20771057 153.0957489 -27.88771057 153.0957489 C-27.84646057 153.9826239 -27.80521057 154.8694989 -27.76271057 155.7832489 C-27.73860838 161.61597881 -28.92202079 167.36196582 -29.88771057 173.0957489 C-30.54771057 173.0957489 -31.20771057 173.0957489 -31.88771057 173.0957489 C-31.88771057 175.4057489 -31.88771057 177.7157489 -31.88771057 180.0957489 C-32.54771057 180.0957489 -33.20771057 180.0957489 -33.88771057 180.0957489 C-33.88771057 182.4057489 -33.88771057 184.7157489 -33.88771057 187.0957489 C-34.87771057 186.7657489 -35.86771057 186.4357489 -36.88771057 186.0957489 C-36.88771057 184.1157489 -36.88771057 182.1357489 -36.88771057 180.0957489 C-37.54771057 180.0957489 -38.20771057 180.0957489 -38.88771057 180.0957489 C-38.88771057 177.7857489 -38.88771057 175.4757489 -38.88771057 173.0957489 C-39.54771057 173.0957489 -40.20771057 173.0957489 -40.88771057 173.0957489 C-42.39745092 166.00536119 -43.17078982 159.34572312 -42.88771057 152.0957489 C-43.87771057 152.0957489 -44.86771057 152.0957489 -45.88771057 152.0957489 C-48.34682562 138.33085881 -47.73812473 125.00055367 -47.01271057 111.0957489 C-46.90598934 108.8562249 -46.80051172 106.61664128 -46.69630432 104.3769989 C-46.44108528 98.94914576 -46.17060521 93.52222639 -45.88771057 88.0957489 C-44.89771057 88.0957489 -43.90771057 88.0957489 -42.88771057 88.0957489 C-42.8981842 87.0441156 -42.90865784 85.9924823 -42.91944885 84.90898132 C-43.2696643 46.45084349 -43.2696643 46.45084349 -40.88771057 31.0957489 C-39.89771057 31.0957489 -38.90771057 31.0957489 -37.88771057 31.0957489 C-37.82712463 30.39707703 -37.7665387 29.69840515 -37.70411682 28.9785614 C-37.62032776 28.06848328 -37.5365387 27.15840515 -37.45021057 26.2207489 C-37.36899963 25.31582703 -37.2877887 24.41090515 -37.20411682 23.4785614 C-36.88771057 21.0957489 -36.88771057 21.0957489 -35.88771057 19.0957489 C-35.22771057 19.0957489 -34.56771057 19.0957489 -33.88771057 19.0957489 C-33.78458557 18.4563739 -33.68146057 17.8169989 -33.57521057 17.1582489 C-33.23489807 16.1373114 -33.23489807 16.1373114 -32.88771057 15.0957489 C-31.89771057 14.7657489 -30.90771057 14.4357489 -29.88771057 14.0957489 C-29.88771057 12.7757489 -29.88771057 11.4557489 -29.88771057 10.0957489 C-29.22771057 10.0957489 -28.56771057 10.0957489 -27.88771057 10.0957489 C-27.88771057 9.4357489 -27.88771057 8.7757489 -27.88771057 8.0957489 C-25.57771057 7.4357489 -23.26771057 6.7757489 -20.88771057 6.0957489 C-20.88771057 5.1057489 -20.88771057 4.1157489 -20.88771057 3.0957489 C-19.23771057 3.0957489 -17.58771057 3.0957489 -15.88771057 3.0957489 C-15.88771057 2.4357489 -15.88771057 1.7757489 -15.88771057 1.0957489 C-10.53943055 0.19844273 -5.41684885 -0.0366351 0 0 Z M185.11228943 3.0957489 C185.11228943 3.7557489 185.11228943 4.4157489 185.11228943 5.0957489 C186.31885193 5.4979364 186.31885193 5.4979364 187.54978943 5.9082489 C188.39541443 6.3001239 189.24103943 6.6919989 190.11228943 7.0957489 C190.44228943 8.0857489 190.77228943 9.0757489 191.11228943 10.0957489 C190.45228943 10.0957489 189.79228943 10.0957489 189.11228943 10.0957489 C189.11228943 9.4357489 189.11228943 8.7757489 189.11228943 8.0957489 C185.05880408 4.91178508 181.81169948 4.72429137 176.75344849 4.73498535 C176.02230404 4.73242208 175.2911596 4.7298588 174.53785926 4.72721785 C172.09328651 4.72228502 169.64933437 4.73876414 167.20481873 4.75517273 C165.45040908 4.75601911 163.69599838 4.75554364 161.94158936 4.75384521 C157.18161355 4.75298427 152.42186441 4.77062611 147.66194129 4.79156709 C142.6864841 4.81031734 137.71102174 4.81208303 132.73553467 4.81564331 C123.31500375 4.82496862 113.89457724 4.84958902 104.4740923 4.87969178 C93.74868122 4.91322063 83.02326517 4.92971799 72.29781473 4.94477808 C50.23591311 4.97613812 28.17411152 5.02951222 6.11228943 5.0957489 C6.44228943 14.3357489 6.77228943 23.5757489 7.11228943 33.0957489 C7.77228943 33.0957489 8.43228943 33.0957489 9.11228943 33.0957489 C9.11228943 108.0057489 9.11228943 182.9157489 9.11228943 260.0957489 C8.45228943 260.0957489 7.79228943 260.0957489 7.11228943 260.0957489 C6.78228943 265.0457489 6.45228943 269.9957489 6.11228943 275.0957489 C29.21694867 275.18833171 52.32156325 275.25972065 75.42637062 275.30299759 C86.15426064 275.32362563 96.88203332 275.35175094 107.60984802 275.39750671 C116.95986362 275.43736696 126.30979424 275.46317995 135.65989244 275.47210288 C140.61104691 275.47731899 145.56195825 275.48958388 150.51303482 275.51866913 C155.17350922 275.54582533 159.83364039 275.55419346 164.4941864 275.54817963 C166.20422099 275.54927977 167.91426709 275.55723249 169.62423325 275.5725708 C171.96097403 275.59250254 174.29642266 275.58767734 176.63319397 275.57676697 C177.94029642 275.58045414 179.24739887 275.58414131 180.59411049 275.58794022 C184.88593249 274.98751666 186.73667341 273.72145486 190.11228943 271.0957489 C190.44228943 271.7557489 190.77228943 272.4157489 191.11228943 273.0957489 C193.34118439 273.15003863 195.57046414 273.18867228 197.79978943 273.2207489 C199.04115662 273.24395203 200.2825238 273.26715515 201.56150818 273.2910614 C204.97599804 273.10324568 207.127965 272.71965156 210.11228943 271.0957489 C212.20682656 267.9539432 212.3618401 267.25591678 212.35838509 263.68170643 C212.36236718 262.77353383 212.36634928 261.86536123 212.37045205 260.92966825 C212.36462636 259.93065116 212.35880068 258.93163408 212.35279846 257.90234375 C212.35450731 256.84214041 212.35621616 255.78193708 212.35797679 254.68960637 C212.36128392 251.11959725 212.3502478 247.54977405 212.33934021 243.9797821 C212.33877636 241.42764795 212.33909214 238.87551348 212.34022522 236.32337952 C212.34068138 230.81983365 212.33499057 225.31634817 212.32374954 219.81281471 C212.30750742 211.85560571 212.30228786 203.89841965 212.29977356 195.94119587 C212.29539443 183.03168168 212.28207943 170.12219274 212.26316833 157.21269226 C212.24481517 144.67102688 212.23065591 132.12936836 212.22215271 119.58769226 C212.22136454 118.42842673 212.22136454 118.42842673 212.22056045 117.2457417 C212.2179504 113.36867919 212.21542298 109.49161664 212.21293664 105.61455405 C212.19219736 73.44160065 212.15696591 41.26867828 212.11228943 9.0957489 C211.45228943 9.0957489 210.79228943 9.0957489 210.11228943 9.0957489 C210.11228943 8.1057489 210.11228943 7.1157489 210.11228943 6.0957489 C207.80228943 5.7657489 205.49228943 5.4357489 203.11228943 5.0957489 C203.11228943 4.4357489 203.11228943 3.7757489 203.11228943 3.0957489 C197.17228943 3.0957489 191.23228943 3.0957489 185.11228943 3.0957489 Z " fill="#020201" transform="translate(66.88771057128906,13.904251098632813)"/>
<path d="M0 0 C38.82973441 -0.04030303 38.82973441 -0.04030303 55.04882812 -0.04882812 C66.26636205 -0.05477148 77.48388849 -0.06177415 88.70141602 -0.07543945 C96.86954522 -0.08538523 105.03766837 -0.09185317 113.20580345 -0.09408849 C117.53351055 -0.09539578 121.86120034 -0.09848277 126.1889019 -0.10573006 C130.25749728 -0.1124886 134.32606812 -0.1146173 138.39466858 -0.11310768 C139.89231563 -0.11338408 141.38996345 -0.11539019 142.88760567 -0.11920547 C144.92351318 -0.12414006 146.9594337 -0.12239818 148.99534607 -0.12025452 C150.13744758 -0.12117631 151.27954908 -0.1220981 152.45625973 -0.12304783 C155 0 155 0 156 1 C156 23.77 156 46.54 156 70 C104.52 70 53.04 70 0 70 C0 46.9 0 23.8 0 0 Z " fill="#B1E01C" transform="translate(88,69)"/>
<path d="M0 0 C5.94 0 11.88 0 18 0 C18 0.66 18 1.32 18 2 C20.31 2.33 22.62 2.66 25 3 C25 3.99 25 4.98 25 6 C25.66 6 26.32 6 27 6 C27.04574721 38.94399858 27.08100382 71.88798894 27.10213066 104.83201202 C27.10463216 108.71865585 27.1072208 112.60529962 27.10986328 116.49194336 C27.1103879 117.26572565 27.11091252 118.03950795 27.11145304 118.83673819 C27.12016291 131.37654927 27.13593607 143.91634206 27.15430559 156.45614228 C27.17298848 169.31682676 27.1841133 182.17750164 27.18817699 195.03819913 C27.1909254 202.9781452 27.19961554 210.91803961 27.21583293 218.85796978 C27.22762419 224.93955821 27.22891543 231.02110191 27.22621536 237.10270309 C27.22676765 239.6025226 27.23077315 242.10234397 27.23841095 244.60215187 C27.24829808 248.00370618 27.24599171 251.40503581 27.24050903 254.80659485 C27.24633472 255.80561193 27.2521604 256.80462902 27.25816262 257.83391935 C27.25418052 258.74209195 27.25019842 259.65026455 27.24609566 260.58595753 C27.2468551 261.37159889 27.24761454 262.15724025 27.24839699 262.96668893 C27 265 27 265 25 268 C20.90592873 270.22776491 17.28591107 270.21095161 12.6875 270.125 C11.43324219 270.10695313 10.17898438 270.08890625 8.88671875 270.0703125 C7.45779297 270.03550781 7.45779297 270.03550781 6 270 C6 268.68 6 267.36 6 266 C6.66 265.67 7.32 265.34 8 265 C8 179.86 8 94.72 8 7 C7.34 7 6.68 7 6 7 C5.7525 6.360625 5.505 5.72125 5.25 5.0625 C4.18437567 2.81258459 4.18437567 2.81258459 1.875 2.25 C0.946875 2.12625 0.946875 2.12625 0 2 C0 1.34 0 0.68 0 0 Z " fill="#8CAF96" transform="translate(252,17)"/>
<path d="M0 0 C0 0.33 0 0.66 0 1 C-1.65 1 -3.3 1 -5 1 C-5 1.99 -5 2.98 -5 4 C-5.66 4 -6.32 4 -7 4 C-7 4.66 -7 5.32 -7 6 C-8.3921875 6.1546875 -8.3921875 6.1546875 -9.8125 6.3125 C-13.20332568 7.04385456 -13.73346842 7.63044426 -16 10 C-17.32 10 -18.64 10 -20 10 C-20.72275508 13.24979786 -21.12468924 16.25490672 -21.12304783 19.58205128 C-21.12503888 20.476789 -21.12702993 21.37152671 -21.12908131 22.2933777 C-21.12616847 23.26711436 -21.12325563 24.24085102 -21.12025452 25.24409485 C-21.12153615 26.80633648 -21.12153615 26.80633648 -21.12284368 28.40013856 C-21.1244926 31.89478753 -21.11898668 35.38938864 -21.11352539 38.8840332 C-21.11324337 41.38720193 -21.11340155 43.89037075 -21.1139679 46.39353943 C-21.11419572 51.78517079 -21.11135673 57.17678722 -21.10573006 62.56841469 C-21.09760014 70.36378422 -21.0949983 78.15914789 -21.09374207 85.9545212 C-21.0915539 98.60225248 -21.08490016 111.2499773 -21.07543945 123.89770508 C-21.06625927 136.18318652 -21.0591814 148.46866621 -21.05493164 160.75415039 C-21.05466892 161.51153365 -21.05440619 162.26891691 -21.05413551 163.04925118 C-21.05283046 166.84885209 -21.05156676 170.64845302 -21.05032361 174.44805396 C-21.0399583 205.965374 -21.02227198 237.48268602 -21 269 C-21.66 269 -22.32 269 -23 269 C-23 262.73 -23 256.46 -23 250 C-23.66 250 -24.32 250 -25 250 C-25 176.41 -25 102.82 -25 27 C-24.34 27 -23.68 27 -23 27 C-23 23.37 -23 19.74 -23 16 C-23.66 16 -24.32 16 -25 16 C-25.33 17.98 -25.66 19.96 -26 22 C-26.66 22 -27.32 22 -28 22 C-28 23.65 -28 25.3 -28 27 C-28.66 27.33 -29.32 27.66 -30 28 C-30.65555119 30.52733235 -30.65555119 30.52733235 -31 33 C-31.66 33 -32.32 33 -33 33 C-33 41.58 -33 50.16 -33 59 C-32.34 59 -31.68 59 -31 59 C-31 59.99 -31 60.98 -31 62 C-31.66 62 -32.32 62 -33 62 C-33 64.64 -33 67.28 -33 70 C-32.34 70 -31.68 70 -31 70 C-31 70.66 -31 71.32 -31 72 C-31.66 72 -32.32 72 -33 72 C-33 74.31 -33 76.62 -33 79 C-32.34 79 -31.68 79 -31 79 C-29.80611597 113.69566704 -29.80611597 113.69566704 -30 128 C-29.34 128 -28.68 128 -28 128 C-28 132.62 -28 137.24 -28 142 C-28.66 142 -29.32 142 -30 142 C-30.33 145.63 -30.66 149.26 -31 153 C-31.66 153 -32.32 153 -33 153 C-32.95875 153.886875 -32.9175 154.77375 -32.875 155.6875 C-32.85089781 161.5202299 -34.03431022 167.26621692 -35 173 C-35.66 173 -36.32 173 -37 173 C-37 175.31 -37 177.62 -37 180 C-37.66 180 -38.32 180 -39 180 C-39 182.31 -39 184.62 -39 187 C-39.99 186.67 -40.98 186.34 -42 186 C-42 184.02 -42 182.04 -42 180 C-42.66 180 -43.32 180 -44 180 C-44 177.69 -44 175.38 -44 173 C-44.66 173 -45.32 173 -46 173 C-47.50974035 165.90961228 -48.28307925 159.24997422 -48 152 C-48.99 152 -49.98 152 -51 152 C-53.45911505 138.23510991 -52.85041416 124.90480477 -52.125 111 C-52.01827877 108.760476 -51.91280115 106.52089238 -51.80859375 104.28125 C-51.55337471 98.85339686 -51.28289464 93.42647749 -51 88 C-50.01 88 -49.02 88 -48 88 C-48.01047363 86.9483667 -48.02094727 85.8967334 -48.03173828 84.81323242 C-48.38195373 46.35509459 -48.38195373 46.35509459 -46 31 C-45.01 31 -44.02 31 -43 31 C-42.93941406 30.30132812 -42.87882812 29.60265625 -42.81640625 28.8828125 C-42.73261719 27.97273438 -42.64882813 27.06265625 -42.5625 26.125 C-42.48128906 25.22007813 -42.40007813 24.31515625 -42.31640625 23.3828125 C-42 21 -42 21 -41 19 C-40.34 19 -39.68 19 -39 19 C-38.896875 18.360625 -38.79375 17.72125 -38.6875 17.0625 C-38.3471875 16.0415625 -38.3471875 16.0415625 -38 15 C-37.01 14.67 -36.02 14.34 -35 14 C-35 12.68 -35 11.36 -35 10 C-34.34 10 -33.68 10 -33 10 C-33 9.34 -33 8.68 -33 8 C-30.69 7.34 -28.38 6.68 -26 6 C-26 5.01 -26 4.02 -26 3 C-24.35 3 -22.7 3 -21 3 C-21 2.34 -21 1.68 -21 1 C-14.03220597 -0.32719886 -7.07011089 -0.08825381 0 0 Z " fill="#EC1C23" transform="translate(72,14)"/>
<path d="M0 0 C1.65 0 3.3 0 5 0 C5 82.17 5 164.34 5 249 C3.35 249 1.7 249 0 249 C0 166.83 0 84.66 0 0 Z " fill="#BDE4C9" transform="translate(272,29)"/>
<path d="M0 0 C38.82973441 -0.04030303 38.82973441 -0.04030303 55.04882812 -0.04882812 C66.26636205 -0.05477148 77.48388849 -0.06177415 88.70141602 -0.07543945 C96.86954522 -0.08538523 105.03766837 -0.09185317 113.20580345 -0.09408849 C117.53351055 -0.09539578 121.86120034 -0.09848277 126.1889019 -0.10573006 C130.25749728 -0.1124886 134.32606812 -0.1146173 138.39466858 -0.11310768 C139.89231563 -0.11338408 141.38996345 -0.11539019 142.88760567 -0.11920547 C144.92351318 -0.12414006 146.9594337 -0.12239818 148.99534607 -0.12025452 C150.13744758 -0.12117631 151.27954908 -0.1220981 152.45625973 -0.12304783 C155 0 155 0 156 1 C156 23.77 156 46.54 156 70 C104.52 70 53.04 70 0 70 C0 46.9 0 23.8 0 0 Z M3 2 C3 23.78 3 45.56 3 68 C52.83 68 102.66 68 154 68 C154 46.22 154 24.44 154 2 C104.17 2 54.34 2 3 2 Z " fill="#1A2003" transform="translate(88,69)"/>
<path d="M0 0 C0.66 0 1.32 0 2 0 C2 3.63 2 7.26 2 11 C1.34 11 0.68 11 0 11 C0 84.59 0 158.18 0 234 C-0.33 234 -0.66 234 -1 234 C-1.33 193.74 -1.66 153.48 -2 112 C-2.99 112 -3.98 112 -5 112 C-6.37522352 95.6937783 -6.09724851 79.34822194 -6 63 C-6.66 63 -7.32 63 -8 63 C-8 60.69 -8 58.38 -8 56 C-7.34 56 -6.68 56 -6 56 C-6 55.34 -6 54.68 -6 54 C-6.66 54 -7.32 54 -8 54 C-8 51.36 -8 48.72 -8 46 C-7.34 46 -6.68 46 -6 46 C-6 45.01 -6 44.02 -6 43 C-6.66 43 -7.32 43 -8 43 C-8 34.42 -8 25.84 -8 17 C-7.34 17 -6.68 17 -6 17 C-6 15.35 -6 13.7 -6 12 C-5.01 11.67 -4.02 11.34 -3 11 C-3 9.35 -3 7.7 -3 6 C-2.34 6 -1.68 6 -1 6 C-0.67 4.02 -0.34 2.04 0 0 Z " fill="#E7E5E5" transform="translate(47,30)"/>
<path d="M0 0 C0.66 0 1.32 0 2 0 C2.93229984 2.79689952 3.12446574 4.46328207 3.12304783 7.35157299 C3.12503888 8.24581201 3.12702993 9.14005103 3.12908131 10.06138819 C3.12616847 11.04484149 3.12325563 12.02829478 3.12025452 13.04154968 C3.12110894 14.08541881 3.12196337 15.12928794 3.12284368 16.20478946 C3.12449712 19.71946993 3.1189793 23.23410319 3.11352539 26.7487793 C3.11324346 29.26150512 3.11340136 31.77423102 3.1139679 34.28695679 C3.11419597 39.70536085 3.1113507 45.12374958 3.10573006 50.5421505 C3.0976088 58.37628111 3.09499919 66.2104059 3.09374207 74.04454026 C3.09155253 86.75438756 3.08489511 99.46422845 3.07543945 112.17407227 C3.06626279 124.52172819 3.0591832 136.86938237 3.05493164 149.21704102 C3.05466892 149.97793672 3.05440619 150.73883242 3.05413551 151.52278557 C3.05283049 155.33991182 3.05156678 159.15703809 3.05032361 162.97416437 C3.03995407 194.64944761 3.02226417 226.32472281 3 258 C2.01 258.33 1.02 258.66 0 259 C0 173.53 0 88.06 0 0 Z " fill="#011D09" transform="translate(258,24)"/>
<path d="M0 0 C0.99 0 1.98 0 3 0 C3 81.84 3 163.68 3 248 C2.01 248.33 1.02 248.66 0 249 C0 166.83 0 84.66 0 0 Z " fill="#B0B0B0" transform="translate(265,29)"/>
<path d="M0 0 C0.33 0 0.66 0 1 0 C1.33 83.82 1.66 167.64 2 254 C1.34 254 0.68 254 0 254 C0 247.73 0 241.46 0 235 C-0.66 235 -1.32 235 -2 235 C-2 161.41 -2 87.82 -2 12 C-1.34 12 -0.68 12 0 12 C0 8.04 0 4.08 0 0 Z " fill="#656565" transform="translate(49,29)"/>
<path d="M0 0 C40.59 0 81.18 0 123 0 C123 0.99 123 1.98 123 3 C82.41 3 41.82 3 0 3 C0 2.01 0 1.02 0 0 Z " fill="#779812" transform="translate(105,106)"/>
<path d="M0 0 C5.94 0 11.88 0 18 0 C18 0.66 18 1.32 18 2 C20.31 2.33 22.62 2.66 25 3 C25 3.99 25 4.98 25 6 C25.66 6 26.32 6 27 6 C26.67 7.98 26.34 9.96 26 12 C20.39 12 14.78 12 9 12 C8.67 10.35 8.34 8.7 8 7 C7.34 7 6.68 7 6 7 C5.7525 6.360625 5.505 5.72125 5.25 5.0625 C4.18437567 2.81258459 4.18437567 2.81258459 1.875 2.25 C0.946875 2.12625 0.946875 2.12625 0 2 C0 1.34 0 0.68 0 0 Z " fill="#1FAF49" transform="translate(252,17)"/>
<path d="M0 0 C3.09202435 0.74846895 3.09202435 0.74846895 6.0625 -0.5 C8.06211564 -0.53920815 10.06299364 -0.54443347 12.0625 -0.5 C12.6875 1.8125 12.6875 1.8125 13.0625 4.5 C10.77211333 7.93558 9.93315217 8.37884558 6.0625 9.5 C2.51171875 9.6953125 2.51171875 9.6953125 -1.25 9.625 C-2.50425781 9.60695313 -3.75851562 9.58890625 -5.05078125 9.5703125 C-6.00339844 9.54710937 -6.95601563 9.52390625 -7.9375 9.5 C-7.9375 8.18 -7.9375 6.86 -7.9375 5.5 C-7.2775 5.17 -6.6175 4.84 -5.9375 4.5 C-5.7725 3.84 -5.6075 3.18 -5.4375 2.5 C-5.2725 1.84 -5.1075 1.18 -4.9375 0.5 C-2.9375 -0.5 -2.9375 -0.5 0 0 Z " fill="#22AF4C" transform="translate(265.9375,277.5)"/>
<path d="M0 0 C0.33 0 0.66 0 1 0 C1 17.16 1 34.32 1 52 C0.67 52 0.34 52 0 52 C0 41.44 0 30.88 0 20 C-0.66 20 -1.32 20 -2 20 C-2 17.69 -2 15.38 -2 13 C-1.34 13 -0.68 13 0 13 C0 12.34 0 11.68 0 11 C-0.66 11 -1.32 11 -2 11 C-2 8.36 -2 5.72 -2 3 C-1.34 3 -0.68 3 0 3 C0 2.01 0 1.02 0 0 Z " fill="#F8B7B9" transform="translate(41,73)"/>
<path d="M0 0 C0.99 0 1.98 0 3 0 C3 7.26 3 14.52 3 22 C2.01 22 1.02 22 0 22 C0 14.74 0 7.48 0 0 Z " fill="#E90207" transform="translate(21,103)"/>
<path d="M0 0 C0.33 0 0.66 0 1 0 C0.67 10.23 0.34 20.46 0 31 C-0.66 31 -1.32 31 -2 31 C-2 22.42 -2 13.84 -2 5 C-1.34 5 -0.68 5 0 5 C0 3.35 0 1.7 0 0 Z " fill="#F8C1C4" transform="translate(41,42)"/>
<path d="M0 0 C0.99 0 1.98 0 3 0 C3 4.95 3 9.9 3 15 C2.01 15 1.02 15 0 15 C0 10.05 0 5.1 0 0 Z " fill="#F59195" transform="translate(21,87)"/>
<path d="M0 0 C0.66 0 1.32 0 2 0 C2 3.63 2 7.26 2 11 C0.35 11 -1.3 11 -3 11 C-3 9.35 -3 7.7 -3 6 C-2.34 6 -1.68 6 -1 6 C-0.67 4.02 -0.34 2.04 0 0 Z " fill="#FBEAEA" transform="translate(47,30)"/>
<path d="M0 0 C0.33 0.99 0.66 1.98 1 3 C0.67 3.66 0.34 4.32 0 5 C3.96 5 7.92 5 12 5 C12 5.33 12 5.66 12 6 C6.39 6 0.78 6 -5 6 C-5 6.66 -5 7.32 -5 8 C-6.32 7.67 -7.64 7.34 -9 7 C-6.98928293 5.42015087 -5.11803264 4.05733014 -2.8125 2.9375 C-0.82107843 2.13297839 -0.82107843 2.13297839 0 0 Z " fill="#080905" transform="translate(257,283)"/>
<path d="M0 0 C2.8125 0.125 2.8125 0.125 6 1 C7.875 4.0625 7.875 4.0625 9 7 C8.01 7 7.02 7 6 7 C6 6.01 6 5.02 6 4 C3.69 3.67 1.38 3.34 -1 3 C-0.67 2.01 -0.34 1.02 0 0 Z " fill="#142218" transform="translate(271,16)"/>
<path d="M0 0 C0.99 0 1.98 0 3 0 C2.67 0.99 2.34 1.98 2 3 C1.85596652 4.33363703 1.75409577 5.67218046 1.68359375 7.01171875 C1.64169922 7.76904297 1.59980469 8.52636719 1.55664062 9.30664062 C1.51732422 10.09232422 1.47800781 10.87800781 1.4375 11.6875 C1.39431641 12.48478516 1.35113281 13.28207031 1.30664062 14.10351562 C1.20072632 16.06881447 1.09987449 18.03438496 1 20 C0.67 20 0.34 20 0 20 C0 13.4 0 6.8 0 0 Z " fill="#EA0D15" transform="translate(26,51)"/>
<path d="M0 0 C0.99 0 1.98 0 3 0 C3.33 2.97 3.66 5.94 4 9 C3.34 9 2.68 9 2 9 C1.34 6.03 0.68 3.06 0 0 Z " fill="#EF434A" transform="translate(24,173)"/>
<path d="M0 0 C0 2.64 0 5.28 0 8 C-0.99 7.67 -1.98 7.34 -3 7 C-3 5.02 -3 3.04 -3 1 C-1 0 -1 0 0 0 Z " fill="#EA0C11" transform="translate(33,193)"/>
<path d="M0 0 C0.33 0 0.66 0 1 0 C1 1.98 1 3.96 1 6 C-2.3 6.33 -5.6 6.66 -9 7 C-8.67 6.34 -8.34 5.68 -8 5 C-6.02 5 -4.04 5 -2 5 C-2 4.34 -2 3.68 -2 3 C-1.34 3 -0.68 3 0 3 C0 2.01 0 1.02 0 0 Z " fill="#3D2121" transform="translate(67,15)"/>
<path d="M0 0 C0.33 0 0.66 0 1 0 C1.02712066 1.43739513 1.04645067 2.87493863 1.0625 4.3125 C1.07410156 5.11300781 1.08570313 5.91351563 1.09765625 6.73828125 C1 9 1 9 0 12 C-0.66 12 -1.32 12 -2 12 C-2 10.35 -2 8.7 -2 7 C-1.34 7 -0.68 7 0 7 C0 4.69 0 2.38 0 0 Z " fill="#F9BBBE" transform="translate(41,160)"/>
<path d="M0 0 C2.64 0 5.28 0 8 0 C8 0.33 8 0.66 8 1 C6.35 1 4.7 1 3 1 C3 1.99 3 2.98 3 4 C2.01 4 1.02 4 0 4 C0 2.68 0 1.36 0 0 Z " fill="#D16F73" transform="translate(64,14)"/>
</svg>
